PathFileType	4	(X/Y/Z)	C:\Users\Willi\Documents\Github\OpenSimMatlabBasic\ExampleData\Trials\dynamic04\marker_experimental.trc
DataRate	CameraRate	NumFrames	NumMarkers	Units	OrigDataRate	OrigDataStartFrame	OrigNumFrames
150.000000	150.000000	2	179	mm	150.000000	137	366
Frame#	Time	LFHD			LBHD			RFHD			RBHD			C7			T10			CLAV			STRN			RBAK			LSHO			LUPA			LELB			LFRA			LWRB			LWRA			LFIN			RSHO			RUPA			RELB			RFRA			RWRB			RWRA			RFIN			SACR			LASI			LT1			LT2			LT3			LS1			LS2			LS3			LHEE			LTOE			RT1			RT2			RT3			RS1			RS2			RS3			RHEE			RTOE			SACO			SACA			SACL			SACP			RASI			RM5D			LM5D			LKNE			RKNE			LANK			RANK			LKJC			RKJC			LAJC			RAJC			LTHI			RTHI			LTIB			RTIB			P_ForcePlate1			P_ForcePlate2			P_ForcePlate3			funktRKJC			funktLKJC			funktRHIP			funktLHIP			LHJC			RHJC			LKNEshank			RKNEshank			LKJCshank			RKJCshank			LHF			COP_FP1			VECTIP_FP1			RawCentreFP1			COP_FP2			VECTIP_FP2			RawCentreFP2			COP_FP3			VECTIP_FP3			RawCentreFP3			LPelvisAngles			RPelvisAngles			LFootProgressAngles			RFootProgressAngles			LHipAngles			RHipAngles			LKneeAngles			RKneeAngles			LAnkleAngles			RAnkleAngles			LFFootAngles			RFFootAngles			LAbsAnkleAngle			RAbsAnkleAngle			RNeckAngles			LNeckAngles			RSpineAngles			LSpineAngles			LShoulderAngles			LElbowAngles			LWristAngles			RShoulderAngles			RElbowAngles			RWristAngles			RThoraxAngles			LThoraxAngles			RHeadAngles			LHeadAngles			LHipPower			LKneePower			LAnklePower			RHipPower			RKneePower			RAnklePower			LWaistPower			RWaistPower			LNeckPower			RNeckPower			LShoulderPower			RShoulderPower			LElbowPower			RElbowPower			LWristPower			RWristPower			F_ForcePlate1			F_ForcePlate2			F_ForcePlate3			LHipForce			RHipForce			LKneeForce			RKneeForce			LAnkleForce			RAnkleForce			LNormalisedGRF			RNormalisedGRF			LGroundReactionForce			RGroundReactionForce			LGRF			RGRF			LWaistForce			RWaistForce			LNeckForce			RNeckForce			LShoulderForce			RShoulderForce			LElbowForce			RElbowForce			LWristForce			RWristForce			Force_FP1			RawForceFP1			Force_FP2			RawForceFP2			Force_FP3			RawForceFP3			LHipMoment			RHipMoment			LKneeMoment			RKneeMoment			LAnkleMoment			RAnkleMoment			LGroundReactionMoment			RGroundReactionMoment			LWaistMoment			RWaistMoment			LNeckMoment			RNeckMoment			LShoulderMoment			RShoulderMoment			LElbowMoment			RElbowMoment			LWristMoment			RWristMoment			RawMomentFP1			RawMomentFP2			RawMomentFP3			
		X1	Y1	Z1	X2	Y2	Z2	X3	Y3	Z3	X4	Y4	Z4	X5	Y5	Z5	X6	Y6	Z6	X7	Y7	Z7	X8	Y8	Z8	X9	Y9	Z9	X10	Y10	Z10	X11	Y11	Z11	X12	Y12	Z12	X13	Y13	Z13	X14	Y14	Z14	X15	Y15	Z15	X16	Y16	Z16	X17	Y17	Z17	X18	Y18	Z18	X19	Y19	Z19	X20	Y20	Z20	X21	Y21	Z21	X22	Y22	Z22	X23	Y23	Z23	X24	Y24	Z24	X25	Y25	Z25	X26	Y26	Z26	X27	Y27	Z27	X28	Y28	Z28	X29	Y29	Z29	X30	Y30	Z30	X31	Y31	Z31	X32	Y32	Z32	X33	Y33	Z33	X34	Y34	Z34	X35	Y35	Z35	X36	Y36	Z36	X37	Y37	Z37	X38	Y38	Z38	X39	Y39	Z39	X40	Y40	Z40	X41	Y41	Z41	X42	Y42	Z42	X43	Y43	Z43	X44	Y44	Z44	X45	Y45	Z45	X46	Y46	Z46	X47	Y47	Z47	X48	Y48	Z48	X49	Y49	Z49	X50	Y50	Z50	X51	Y51	Z51	X52	Y52	Z52	X53	Y53	Z53	X54	Y54	Z54	X55	Y55	Z55	X56	Y56	Z56	X57	Y57	Z57	X58	Y58	Z58	X59	Y59	Z59	X60	Y60	Z60	X61	Y61	Z61	X62	Y62	Z62	X63	Y63	Z63	X64	Y64	Z64	X65	Y65	Z65	X66	Y66	Z66	X67	Y67	Z67	X68	Y68	Z68	X69	Y69	Z69	X70	Y70	Z70	X71	Y71	Z71	X72	Y72	Z72	X73	Y73	Z73	X74	Y74	Z74	X75	Y75	Z75	X76	Y76	Z76	X77	Y77	Z77	X78	Y78	Z78	X79	Y79	Z79	X80	Y80	Z80	X81	Y81	Z81	X82	Y82	Z82	X83	Y83	Z83	X84	Y84	Z84	X85	Y85	Z85	X86	Y86	Z86	X87	Y87	Z87	X88	Y88	Z88	X89	Y89	Z89	X90	Y90	Z90	X91	Y91	Z91	X92	Y92	Z92	X93	Y93	Z93	X94	Y94	Z94	X95	Y95	Z95	X96	Y96	Z96	X97	Y97	Z97	X98	Y98	Z98	X99	Y99	Z99	X100	Y100	Z100	X101	Y101	Z101	X102	Y102	Z102	X103	Y103	Z103	X104	Y104	Z104	X105	Y105	Z105	X106	Y106	Z106	X107	Y107	Z107	X108	Y108	Z108	X109	Y109	Z109	X110	Y110	Z110	X111	Y111	Z111	X112	Y112	Z112	X113	Y113	Z113	X114	Y114	Z114	X115	Y115	Z115	X116	Y116	Z116	X117	Y117	Z117	X118	Y118	Z118	X119	Y119	Z119	X120	Y120	Z120	X121	Y121	Z121	X122	Y122	Z122	X123	Y123	Z123	X124	Y124	Z124	X125	Y125	Z125	X126	Y126	Z126	X127	Y127	Z127	X128	Y128	Z128	X129	Y129	Z129	X130	Y130	Z130	X131	Y131	Z131	X132	Y132	Z132	X133	Y133	Z133	X134	Y134	Z134	X135	Y135	Z135	X136	Y136	Z136	X137	Y137	Z137	X138	Y138	Z138	X139	Y139	Z139	X140	Y140	Z140	X141	Y141	Z141	X142	Y142	Z142	X143	Y143	Z143	X144	Y144	Z144	X145	Y145	Z145	X146	Y146	Z146	X147	Y147	Z147	X148	Y148	Z148	X149	Y149	Z149	X150	Y150	Z150	X151	Y151	Z151	X152	Y152	Z152	X153	Y153	Z153	X154	Y154	Z154	X155	Y155	Z155	X156	Y156	Z156	X157	Y157	Z157	X158	Y158	Z158	X159	Y159	Z159	X160	Y160	Z160	X161	Y161	Z161	X162	Y162	Z162	X163	Y163	Z163	X164	Y164	Z164	X165	Y165	Z165	X166	Y166	Z166	X167	Y167	Z167	X168	Y168	Z168	X169	Y169	Z169	X170	Y170	Z170	X171	Y171	Z171	X172	Y172	Z172	X173	Y173	Z173	X174	Y174	Z174	X175	Y175	Z175	X176	Y176	Z176	X177	Y177	Z177	X178	Y178	Z178	X179	Y179	Z179	

138	0.9133333333333334	-173.8249206542969	1258.787841796875	206.0001068115233	-299.50146484375	1283.46142578125	181.2782745361327	-169.7920532226563	1258.79541015625	319.8992004394531	-300.7819824218751	1294.59228515625	348.4650573730468	-378.3155517578126	1144.334594726562	265.1720886230468	-416.0143127441407	995.3698120117188	266.6768493652343	-268.1692199707032	1093.0107421875	261.3582763671874	-242.4452667236328	1039.657348632812	262.6493530273436	-411.2860717773438	1068.953735351562	353.4256896972655	-335.944580078125	1108.199462890625	126.1026611328124	-397.9044799804688	918.489990234375	90.5964355468749	-406.3170471191406	855.7760009765625	82.41456604003895	-418.3390808105469	783.9570922851562	73.10749816894521	-420.0888977050781	655.2466430664062	75.3046874999999	-348.7993774414062	650.1122436523438	69.42571258544913	-368.3303527832031	592.572265625	47.50909805297844	-338.3009948730469	1118.3525390625	399.9221801757811	-362.2692871093751	1014.327331542969	447.3785400390624	-379.5768737792969	859.6951293945312	479.1871337890624	-336.2373962402344	713.4900512695312	492.2025146484374	-318.5262451171876	672.130615234375	497.7018737792968	-252.606430053711	701.1879272460938	489.8434448242186	-233.9267272949219	641.9734497070312	518.2576293945312	-396.9273071289063	785.5751953125	258.3451232910155	-245.5104522705078	763.9754638671875	169.4184112548827	-252.3735046386719	562.508544921875	137.8391571044921	-299.7510681152344	449.2723083496094	152.3454132080078	-235.8148193359375	463.8638000488281	158.7479248046874	-288.2044372558594	229.9358062744141	154.7647094726562	-382.2695007324219	150.6119537353516	166.7577209472656	-238.2466430664063	148.4097290039062	176.7590026855468	-347.6272277832032	49.3905487060547	236.668960571289	-195.9920806884766	48.073299407959	216.0873565673828	-242.2292785644532	560.1671142578125	429.5026550292968	-241.5160217285157	444.474853515625	413.8565673828124	-197.2527465820313	467.7753601074219	423.9344787597656	-313.9370117187501	304.8538818359375	423.0093688964843	-435.1600952148438	300.8545837402344	395.2550048828124	-325.1030578613282	208.1708221435547	409.2244567871093	-465.5169982910157	205.3767395019532	329.3951416015624	-386.1484375000001	82.00872039794925	376.0093383789062	-361.4906005859376	779.343994140625	268.0729064941405	-356.5136718750001	778.4940185546875	268.7854003906249	-360.7558593750001	779.4168701171875	263.0276489257811	-353.1822814941407	829.6153564453125	270.0089721679686	-278.3939819335938	760.7139892578125	395.2270507812499	-411.8161315917969	90.273063659668	402.9067077636718	-208.7622375488282	25.6450710296631	181.0384216308593	-256.7879333496094	397.3482971191406	170.6948242187499	-185.4568176269532	411.1909484863281	415.5696716308594	-308.473876953125	52.62175369262697	195.3194732666015	-437.6695251464844	183.3121490478516	380.5363464355468	-264.6592712402344	394.9042663574219	222.2858581542968	-179.9535217285157	404.53466796875	363.5136108398438	-296.9339904785156	63.45823287963869	231.386245727539	-416.4516296386719	175.521224975586	348.1727294921874	-265.5469665527344	548.8729858398438	133.2362060546874	-253.2859497070313	559.0833129882812	440.4022216796874	-307.9931335449219	214.3208923339844	137.936538696289	-345.1980895996094	312.0364990234375	433.1839599609374	256.7200012207031	0.07899999618532701	396.4200134277344	-289.6473083496094	1.374283516784442e-14	224.4375305175781	-950.1600341796875	1.404999971389795	394.6300048828124	0	0	0	0	0	0	0	0	0	0	0	0	-294.4286499023438	698.47705078125	225.0049591064452	-309.6624145507813	696.4423828125	325.8204040527343	-256.0250854492188	402.2069396972656	172.0131378173828	-174.7605133056641	401.455810546875	414.1648864746094	-263.3818054199219	400.7435607910156	223.7171173095703	-174.3247222900391	398.1380310058594	361.5042114257812	0.5282646417617798	-6.617466926574707	0.1207500472664838	256.7200012207031	0.07899999618532701	396.4200134277344	256.7200012207031	0.07899999618532701	396.4200134277344	256.7200012207031	0.07899999618532701	396.4200134277344	-289.6473083496094	1.374283516784442e-14	224.4375305175781	-295.1350708007813	292.9827880859375	233.2384490966796	-254.2699890136719	-0.2560999989509441	231.3000030517578	-950.1600341796875	1.404999971389795	394.6300048828124	-950.1600341796875	1.404999971389795	394.6300048828124	-254.2699890136719	-0.2560999989509441	231.3000030517578	-9.384335517883301	8.038138389587402	2.175929546356199	-9.384335517883301	-8.038138389587402	-2.175929546356202	-3.237498760223389	-6.750783443450928	-1.199002981185913	-63.83197021484375	-14.66179656982422	-8.078559875488287	-15.06465625762939	0.5647690296173096	-0.4961566925048847	-34.2414436340332	5.393223762512207	-4.060901165008549	-10.72059726715088	-24.64682579040527	3.757452249526978	-70.35762786865234	-24.64226531982422	2.580841302871697	-2.524576663970947	9.305760383605957	-0.3248963952064523	17.18767738342285	15.01209354400635	3.863119125366212	2.982152300272738e-31	-9.939233495592235e-17	-2.435112150171812e-15	6.361109437179021e-15	6.361109437179021e-15	3.180554718589511e-15	-8.38239860534668	0	-1.026547762121505e-15	12.39285278320312	0	1.517686749325407e-15	-9.858964920043945	0.3332061767578124	-1.369599461555482	-9.858964920043945	-0.3332061767578124	1.36959946155548	5.918486595153809	-9.505545616149902	-3.123537778854369	5.918486595153809	9.505545616149902	3.123537778854371	19.35302543640137	-7.917989730834961	6.515446662902836	-32.80676651000977	4.277845981094652e-13	-2.62617745706803e-15	-5.60861873626709	95.59780883789062	2.372223615646356	11.42445087432861	-3.289924860000609	11.9107141494751	-45.68811798095703	2.523173727245198e-12	-8.576950806357277e-15	-14.93187999725342	92.50241851806641	2.098887443542473	-3.38727068901062	1.556313037872314	0.7903377413749689	-3.38727068901062	-1.556313037872314	-0.7903377413749698	13.22300052642822	0.8358720541000367	2.337265253067018	13.22300052642822	-0.8358720541000367	-2.337265253067015	-7.171046464187601e-34	-0.09562926739454269	5.855603810976653e-18	1.037890335303714e-33	0.1384075433015823	-8.475017744106574e-18	-3.210133328529122e-34	-0.04280863329768181	2.621272787193941e-18	3.951868834386396e-34	0.05270002409815788	-3.226945791339871e-18	1.005381804534198e-34	0.01340723782777786	-8.209565445597736e-19	1.425565247151755e-34	0.01901058107614517	-1.164062363241622e-18	1.629617517282136e-34	0.02173171378672123	-1.330683686444728e-18	1.629617517282136e-34	0.02173171378672123	-1.330683686444728e-18	1.19588703772243e-33	0.1594771444797516	-9.765158726214388e-18	1.19588703772243e-33	0.1594771444797516	-9.765158726214388e-18	1.618651274054533e-34	0.02158547379076481	-1.32172906929696e-18	-6.794896758024628e-36	-0.0009061313467100263	5.548454266777571e-20	7.139543831185815e-36	0.0009520916501060128	-5.829879958986251e-20	-1.291356571166612e-34	-0.01722084544599056	1.054472662702181e-18	-6.413266749957388e-37	-8.55239195516333e-05	5.236829716472173e-21	-7.560543924539452e-36	-0.001008233986794949	6.173652623600043e-20	256.7200012207031	0.07899999618532701	396.4200134277344	-295.1350708007813	292.9827880859375	233.2384338378906	-950.1600341796875	1.404999971389795	394.6300048828124	0.5282646417617798	-6.617466926574707	0.1207500472664838	-0.1430558413267136	0.9384390115737915	-0.1071249246597291	-0.996988832950592	-7.420505523681641	0.2063523530960086	0.1111138910055161	0.1254645884037018	-0.04657516255974769	-7.900127410888672	0.6309050917625427	0.3427850604057302	0.07889676839113235	0.017912982031703	0.02849275618791581	1.469591021537781	82.18473052978516	2.382004022598262	0	0	0	-0.1441668868064881	8.062321662902832	0.2336745858192439	0	0	0	-0.1441668868064881	8.062321662902832	0.2336745858192439	0	0	0	-0.6711352467536926	-4.633419036865234	0.09312561899423619	-0.6711352467536926	-4.633419036865234	0.09312561899423619	0.1405948251485825	-1.086942553520203	-0.07824482768774024	0.1405948251485825	-1.086942553520203	-0.07824482768774024	-0.1012202352285385	0.395332545042038	-0.04797367379069332	-0.1263729482889176	0.3960207998752594	0.1333157122135162	0.08810295909643173	0.1698257923126221	-0.02546039037406445	0.07949548959732054	0.1849867105484009	0.06166085973381995	-0.01122335065156221	0.04501070827245712	-0.03400940448045731	-0.01944590546190739	0.04995518922805786	0.03268923610448837	256.7200012207031	0.07899999618532701	396.4200134277344	0	0	0	-295.1350708007813	292.9827880859375	233.2384338378906	-5.48778247833252	292.9827880859375	8.800901412963849	-950.1600341796875	1.404999971389795	394.6300048828124	-5.48778247833252	292.9827880859375	8.800901412963849	77.30986022949216	-48.87763595581053	185.8203430175781	27.46815299987793	2.997477054595948	13.40284156799317	-285.2385864257812	-36.03004837036133	42.51352310180661	-14.63341903686523	4.597693920135498	-7.192346572875978	-46.92873382568359	-34.63338470458984	-32.01243591308594	4.350940227508545	-2.082906246185303	-0.5867268443107598	58.93978500366214	44.76998138427733	-279.1242065429688	nan	nan	nan	162.8753662109375	97.14960479736327	-181.0572967529297	162.8753662109375	-97.14960479736327	181.0572967529297	-219.9304046630859	89.89562988281249	-157.9754791259766	-219.930404663086	-89.89562988281249	157.9754791259765	7.944068908691404	-1.915946125984191	11.84800243377686	-14.13914871215821	-5.756100177764891	28.22818374633789	15.4986400604248	0.05440304800868057	3.620607137680055	10.66296291351318	-0.2034661620855327	7.845688819885255	-0.4379793703556063	1.154167410925712e-16	1.88489842414856	-1.115901947021485	3.215232017205634e-15	1.761011838912964	0	0	0	2010.584594726564	1600.894409179687	-10364.943359375	2010.584594726564	1600.894409179687	-10364.943359375	
139	0.92	-166.0184631347657	1259.304931640625	205.9077301025389	-291.681640625	1283.873657226562	180.9966888427733	-162.1731872558594	1259.212280273438	319.8141784667968	-293.2461853027344	1294.861450195312	348.1886901855468	-370.7858276367188	1144.851928710938	264.4316406249999	-408.7278747558594	995.9191284179688	265.8329772949218	-260.7661743164063	1093.409301757812	261.297882080078	-235.1501617431641	1039.978881835938	262.6867065429686	-404.3786621093751	1069.4580078125	352.344268798828	-327.4266662597656	1108.809204101562	125.6272583007811	-387.8005065917969	918.8475341796875	88.47590637207021	-395.658935546875	856.0889892578125	79.93869018554678	-406.9699096679688	784.2009887695312	70.16927337646474	-407.7800598144531	655.4461059570312	71.84334564208974	-336.3421630859375	650.8734130859375	67.19033050537101	-355.1463317871094	593.344482421875	44.56901550292961	-331.7146301269532	1118.685668945312	399.4558105468749	-356.4720153808594	1014.692077636719	446.6110839843749	-374.7758483886719	860.1497802734375	477.8226623535155	-334.4522705078126	713.0853881835938	490.5168457031249	-317.6303710937501	671.3450927734375	496.0032348632811	-251.0420379638672	699.0968627929688	489.2094421386718	-233.9830017089844	639.2617797851562	517.5757446289062	-390.0248718261719	786.1038208007812	258.6442871093749	-239.1533203125	764.0493774414062	168.7810974121093	-248.2136840820313	562.2491455078125	137.4157104492187	-296.8159484863281	449.5458984375	152.4293518066406	-232.6025085449219	463.4323120117188	158.2043151855468	-286.99951171875	229.883544921875	154.5898895263672	-381.5030822753906	151.3720245361328	166.5697479248046	-237.62109375	147.9752044677734	176.567886352539	-347.5326538085938	49.60042190551759	236.6732482910156	-195.9070587158203	48.00104904174806	215.9986267089843	-231.0871734619141	562.2220458984375	428.8822631835937	-228.8036499023438	446.5676879882812	413.3070373535156	-184.7356567382813	470.588134765625	422.4645996093749	-299.3078613281251	305.05908203125	422.1292724609374	-420.5921020507813	298.3780822753906	394.9113769531249	-308.4409790039063	208.1855621337891	408.7860107421874	-449.7467041015626	201.1337280273438	330.1683044433593	-364.0584411621094	81.02088165283206	375.3859252929687	-354.4911499023438	779.8858642578125	268.0673217773436	-349.5103454589844	779.0355834960938	268.7516479492186	-353.7883911132813	779.9381103515625	263.0172424316405	-346.1400451660157	830.1592407226562	269.7496032714843	-270.5964660644532	761.711181640625	394.7272033691405	-390.0223999023438	87.80607604980472	402.4515686035156	-208.719223022461	25.54749298095704	180.9308471679687	-254.2692108154297	397.1624755859375	170.3795318603515	-172.1815032958985	414.178955078125	413.8988037109375	-308.4330139160156	52.70409393310548	195.1344299316406	-420.6666564941407	180.8053894042969	380.6667785644531	-261.6698913574219	394.8270263671875	222.0451965332031	-167.6295013427735	407.5606689453125	361.7461242675781	-296.80908203125	63.46008300781251	231.1983032226562	-399.4324645996094	173.3320617675782	348.2390747070312	-261.5606689453125	548.7945556640625	132.9108428955078	-241.7491912841797	561.111328125	439.5768432617186	-306.5582580566406	214.4926605224609	137.6613311767578	-330.6995544433594	311.758056640625	432.5077819824218	256.7200012207031	0.07899999618532701	396.4200134277344	-286.2885437011719	1.363799384602716e-14	222.725341796875	-950.1600341796875	1.404999971389795	394.6300048828124	0	0	0	0	0	0	0	0	0	0	0	0	-287.7528991699219	698.804931640625	224.898956298828	-302.3487548828126	697.1824951171875	325.816192626953	-253.6701812744141	401.935302734375	171.8439941406249	-162.2129364013672	404.5007629394531	412.3010864257812	-261.0188293457031	400.5157775878906	223.5503540039062	-161.9377136230469	400.9883728027344	359.6519165039062	0.4543888866901398	-6.460363388061523	0.176563143730164	256.7200012207031	0.07899999618532701	396.4200134277344	256.7200012207031	0.07899999618532701	396.4200134277344	256.7200012207031	0.07899999618532701	396.4200134277344	-286.2885437011719	1.363799384602716e-14	222.725341796875	-290.3202209472657	287.0025634765625	233.6695556640624	-254.2699890136719	-0.2560999989509441	231.3000030517578	-950.1600341796875	1.404999971389795	394.6300048828124	-950.1600341796875	1.404999971389795	394.6300048828124	-254.2699890136719	-0.2560999989509441	231.3000030517578	-9.431452751159668	7.717222213745117	1.890803813934325	-9.431452751159668	-7.717222213745117	-1.890803813934327	-3.284504175186157	-6.693150997161865	-1.143358945846558	-60.86468124389648	-14.05468559265137	-7.026548862457282	-14.38295745849609	0.3929150998592376	-0.6207988262176531	-35.1534538269043	5.991214752197266	-3.564723014831548	-10.54814529418945	-24.08968734741211	3.657904386520386	-70.04523468017578	-25.28838157653809	3.197554826736443	-2.971920251846313	9.355236053466797	-0.3851084113121042	15.68451690673828	16.00277709960938	3.778010606765748	3.975693398236891e-16	9.939233495592205e-17	-2.491020348097095e-15	1.272221887435804e-14	1.590277359294755e-15	1.46064605836262e-30	-8.829115867614746	0	-1.081254848657551e-15	10.85175037384033	0	1.328956136046966e-15	-9.70491886138916	0.1174038425087928	-1.319442987442018	-9.70491886138916	-0.1174038425087928	1.319442987442015	5.890031814575195	-8.871588706970215	-2.803063392639159	5.890031814575195	8.871588706970215	2.803063392639161	18.79976654052734	-7.29662036895752	6.97349309921265	-32.84440612792969	-4.866248463214484e-13	-4.221064353358295e-15	-5.578441619873047	95.66912841796875	2.517413854598992	11.74183845520019	-3.11345624923706	11.76585102081299	-45.05835723876953	-3.216335889028726e-13	-6.412588251775984e-15	-14.64516830444336	92.13484191894531	2.277438640594475	-3.485605239868164	1.241336584091187	0.7884765863418574	-3.485605239868164	-1.241336584091187	-0.7884765863418582	13.17041397094727	0.7530658245086671	2.267061471939089	13.17041397094727	-0.7530658245086671	-2.267061471939085	-5.805481004403667e-34	-0.07741881161928177	4.740534992167267e-18	9.672613149953741e-34	0.1289888322353363	-7.898288026137977e-18	-5.737751546409501e-34	-0.07651560753583908	4.685229692679022e-18	3.282567912737943e-34	0.04377458244562149	-2.680420113802114e-18	1.34019401018288e-34	0.01787211559712887	-1.094351458000768e-18	1.277693044428612e-34	0.01703863590955734	-1.043315546423828e-18	8.373349205351705e-36	0.001116625382564962	-6.837358503024347e-20	8.373349205351705e-36	0.001116625382564962	-6.837358503024347e-20	1.071020815429301e-33	0.142825648188591	-8.745548644515197e-18	1.071020815429301e-33	0.142825648188591	-8.745548644515197e-18	1.551028388859209e-34	0.02068369090557098	-1.266510793103036e-18	1.114070184300769e-36	0.000148566483403556	-9.097073418037164e-21	7.921261596110514e-36	0.001056337379850447	-6.46820095526776e-20	-1.314121526666507e-34	-0.01752442680299282	1.073061659558862e-18	-8.502704798939265e-37	-0.0001133875557570718	6.942985361052003e-21	-7.485660121421471e-36	-0.0009982478804886341	6.112505357980177e-20	256.7200012207031	0.07899999618532701	396.4200134277344	-290.3201904296876	287.0025634765625	233.6695556640624	-950.1600341796875	1.404999971389795	394.6300048828124	0.4543888568878174	-6.460363864898682	0.176563143730164	-0.1331082284450531	0.8912173509597778	-0.117413491010666	-1.019298553466797	-7.248456478118896	0.2412024736404422	0.1032211631536484	0.1251946240663528	-0.05125374346971511	-7.735730648040771	0.5938442349433899	0.3923227787017812	0.08041921257972717	0.01203078217804432	0.02320588380098344	1.245330095291137	80.27586364746094	2.986753702163691	0	0	0	-0.1221668869256974	7.875061988830566	0.2930005490779872	0	0	0	-0.1221668869256974	7.875061988830566	0.2930005490779872	0	0	0	-0.6646379828453064	-4.516046524047852	0.1031320095062258	-0.6646379828453064	-4.516046524047852	0.1031320095062258	0.07071762531995775	-1.012869596481323	-0.08635284006595605	0.07071762531995775	-1.012869596481323	-0.08635284006595605	-0.1017980352044106	0.3930312097072601	-0.04380020499229435	-0.1211963593959808	0.3967594802379608	0.1303291320800781	0.0870622918009758	0.1701329797506332	-0.02318147383630276	0.0799734517931938	0.1859470903873444	0.06018964573740958	-0.01124437898397445	0.04516089707612991	-0.03410991281270981	-0.01894496940076352	0.0504673533141613	0.03347914293408394	256.7200012207031	0.07899999618532701	396.4200134277344	0	0	0	-290.3201904296876	287.0025634765625	233.6695556640624	-4.031674861907961	287.0025634765625	10.94420337677	-950.1600341796875	1.404999971389795	394.6300048828124	-4.031674861907961	287.0025634765625	10.94420337677	75.48896789550778	-52.2275047302246	204.7807464599609	24.80756378173828	2.670786380767823	13.91332149505616	-264.8024291992188	-37.48627090454102	57.47978591918942	-13.40905380249023	3.293252229690551	-6.011894702911379	-74.44126892089844	-35.70834732055664	-35.99897003173829	4.216084957122803	-1.510966300964355	-0.3148176670074457	61.22967910766604	47.50192260742186	-253.4231262207031	nan	nan	nan	175.9681243896485	99.87052917480467	-161.8224945068359	175.9681243896484	-99.87052917480467	161.822494506836	-173.0301971435547	93.23487854003905	-146.907958984375	-173.0301971435547	-93.23487854003905	146.907958984375	7.405527591705321	-1.844451427459716	10.63029193878174	-13.33438205718994	-5.539278507232664	27.62950897216797	15.48920059204102	0.05962260439991972	3.493149995803835	11.00202655792236	-0.1843911260366435	7.641740322113039	-0.4562659263610842	7.045942851564847e-16	1.916779518127441	-1.083681344985962	1.433710349457835e-15	1.83650004863739	0	0	0	2460.947753906251	1726.345581054687	-9189.40234375	2460.947753906251	1726.345581054687	-9189.40234375	
